<?xml version="1.0" encoding="utf-8"?>

<!DOCTYPE svg PUBLIC "-//W3C//DTD SVG 1.1//EN" "http://www.w3.org/Graphics/SVG/1.1/DTD/svg11.dtd">
<svg version="1.1" xmlns="http://www.w3.org/2000/svg" 
	xmlns:xlink="http://www.w3.org/1999/xlink" 
	x="0px" y="0px" 
	width="500px" height="400px" 
	viewBox="0 0 500 400" 
	enable-background="new 0 0 500 400" 
	xml:space="preserve">

	<g id="bg">
		<path fill="#FF5A3C" d="M269.479,289.844c-9.244,5.979-24.236,5.979-33.485,0L18.359,177.039v67.06
			c0,4.911,3.433,9.297,8.82,12.231l219.264,113.857c3.475,2.248,9.109,2.248,12.585,0l219.239-113.847
			c5.403-2.935,8.841-7.325,8.841-12.242v-67.061L269.479,289.844z"/>
		<g>
			<path fill="#FF5A3C" d="M460.817,28.125H44.653c-14.185,0-26.294,13.672-26.294,26.923v97.272c0,4.911,3.433,10.861,8.82,13.795
				l219.264,113.859c3.475,2.249,9.109,2.249,12.585,0l219.239-113.848c5.403-2.933,8.841-8.889,8.841-13.805V51.923
				C487.109,38.672,475.391,28.125,460.817,28.125z"/>
		</g>
	</g>

	<g id="click">
		<path fill="#FFFFFF" d="M193.114,164.04c-8.652,1.764-16.423,2.646-23.31,2.646c-6.889,0-12.454-0.945-16.695-2.835
			c-4.243-1.89-7.519-4.829-9.828-8.82c-2.311-3.989-3.906-8.568-4.788-13.734c-0.882-5.166-1.323-11.612-1.323-19.341
			c0-7.727,0.441-14.216,1.323-19.467c0.882-5.249,2.477-9.891,4.788-13.923c2.31-4.032,5.564-6.972,9.765-8.82
			c4.199-1.847,9.659-2.772,16.38-2.772c6.719,0,14.616,0.925,23.688,2.772l-0.378,8.19c-8.485-1.512-16.045-2.268-22.68-2.268
			c-9.241,0-15.352,2.752-18.333,8.253c-2.982,5.502-4.473,14.89-4.473,28.161c0,6.637,0.271,11.97,0.819,16.002
			c0.545,4.032,1.616,7.666,3.213,10.899c1.595,3.234,3.926,5.544,6.993,6.93c3.065,1.386,7.56,2.079,13.482,2.079
			s12.915-0.756,20.979-2.268L193.114,164.04z"/>
		<path fill="#FFFFFF" d="M208.107,165.426V74.958h9.45v90.468H208.107z"/>
		<path fill="#FFFFFF" d="M236.455,88.188V77.226h9.45v10.962H236.455z M236.455,165.426v-63h9.45v63H236.455z"/>
		<path fill="#FFFFFF" d="M287.61,101.167c2.772,0,7.476,0.504,14.112,1.512l3.023,0.378l-0.378,7.686
			c-6.721-0.756-11.676-1.134-14.867-1.134c-7.141,0-11.992,1.701-14.554,5.103c-2.563,3.402-3.843,9.702-3.843,18.9
			c0,9.198,1.197,15.604,3.591,19.215c2.395,3.613,7.371,5.418,14.932,5.418l14.867-1.134l0.379,7.812
			c-7.813,1.175-13.651,1.764-17.515,1.764c-9.828,0-16.612-2.52-20.349-7.56c-3.739-5.04-5.607-13.545-5.607-25.515
			c0-11.97,2.016-20.369,6.048-25.2C271.482,103.582,278.202,101.167,287.61,101.167z"/>
		<path fill="#FFFFFF" d="M328.434,165.426h-9.45V74.958h9.45v53.424l9.827-0.504l18.019-25.452h10.71l-20.538,28.98l21.42,34.02
			h-10.71l-18.774-29.232l-9.953,0.378V165.426z"/>
	</g>
</svg>
